HIERARCHY
ROOT hip
{
  OFFSET 0.00112043 5.09927 -9.65472
  CHANNELS 6 Xposition Yposition Zposition Zrotation Xrotation Yrotation
  JOINT abdomen
  {
    OFFSET 0 -1.186 -1.5018
    CHANNELS 3 Zrotation Xrotation Yrotation
    JOINT abdomen2
    {
      OFFSET 0 9.964 0.2134
      CHANNELS 3 Zrotation Xrotation Yrotation
      JOINT chest
      {
        OFFSET 0 13.134 -3.2573
        CHANNELS 3 Zrotation Xrotation Yrotation
        JOINT neck
        {
          OFFSET 0 20.686 -1.6905
          CHANNELS 3 Zrotation Xrotation Yrotation
          JOINT head
          {
            OFFSET 0 7.238 -0.1237
            CHANNELS 3 Zrotation Xrotation Yrotation
            End Site
            {
              OFFSET 0 0 0
            }
          }
        }
        JOINT lCollar
        {
          OFFSET 1.7069 20.075 5.0056
          CHANNELS 3 Zrotation Xrotation Yrotation
          JOINT lShldr
          {
            OFFSET 13.6458 -0.047 -4.849
            CHANNELS 3 Zrotation Xrotation Yrotation
            JOINT lForeArm
            {
              OFFSET 28.3255 -0.9759 2.2888
              CHANNELS 3 Zrotation Xrotation Yrotation
              JOINT lHand
              {
                OFFSET 22.1583 -0.53 10.8316
                CHANNELS 3 Zrotation Xrotation Yrotation
                JOINT lThumb1
                {
                  OFFSET 0.786 0.112 2.5817
                  CHANNELS 3 Zrotation Xrotation Yrotation
                  JOINT lThumb2
                  {
                    OFFSET 0.3601 -0.878 4.2331
                    CHANNELS 3 Zrotation Xrotation Yrotation
                    JOINT lThumb2_End
                    {
                      OFFSET 1.8127 -1.216 2.2227
                      CHANNELS 3 Zrotation Xrotation Yrotation
                      End Site
                      {
                        OFFSET 0.0181 -0.0122 0.0222
                      }
                    }
                  }
                }
                JOINT lCarpal1
                {
                  OFFSET 0.9571 1.114 1.7695
                  CHANNELS 3 Zrotation Xrotation Yrotation
                  JOINT lIndex1
                  {
                    OFFSET 4.1246 0.487 4.1451
                    CHANNELS 3 Zrotation Xrotation Yrotation
                    JOINT lIndex2
                    {
                      OFFSET 3.4052 -1.454 2.7682
                      CHANNELS 3 Zrotation Xrotation Yrotation
                      JOINT lIndex2_End
                      {
                        OFFSET 1.4531 -1.795 1.2713
                        CHANNELS 3 Zrotation Xrotation Yrotation
                        End Site
                        {
                          OFFSET 0.0145 -0.0179 0.0127
                        }
                      }
                    }
                  }
                  JOINT lMid1
                  {
                    OFFSET 5.6954 0.21 2.1184
                    CHANNELS 3 Zrotation Xrotation Yrotation
                    JOINT lMid2
                    {
                      OFFSET 3.9766 -1.54 2.3863
                      CHANNELS 3 Zrotation Xrotation Yrotation
                      JOINT lMid2_End
                      {
                        OFFSET 1.4042 -1.926 1.125
                        CHANNELS 3 Zrotation Xrotation Yrotation
                        End Site
                        {
                          OFFSET 0.014 -0.0193 0.0113
                        }
                      }
                    }
                  }
                }
                JOINT lCarpal2
                {
                  OFFSET 2.0956 0.66 -0.3894
                  CHANNELS 3 Zrotation Xrotation Yrotation
                  JOINT lRing1
                  {
                    OFFSET 5.0395 -0.09 2.4971
                    CHANNELS 3 Zrotation Xrotation Yrotation
                    JOINT lRing2
                    {
                      OFFSET 3.7921 -1.552 1.4806
                      CHANNELS 3 Zrotation Xrotation Yrotation
                      JOINT lRing2_End
                      {
                        OFFSET 1.4655 -1.808 0.9609
                        CHANNELS 3 Zrotation Xrotation Yrotation
                        End Site
                        {
                          OFFSET 0.0147 -0.0181 0.0096
                        }
                      }
                    }
                  }
                  JOINT lPinky1
                  {
                    OFFSET 4.9141 -1.269 0.3591
                    CHANNELS 3 Zrotation Xrotation Yrotation
                    JOINT lPinky2
                    {
                      OFFSET 3.1477 -1.685 0.8462
                      CHANNELS 3 Zrotation Xrotation Yrotation
                      JOINT lPinky2_End
                      {
                        OFFSET 0.8055 -1.585 0.7955
                        CHANNELS 3 Zrotation Xrotation Yrotation
                        End Site
                        {
                          OFFSET 0.0081 -0.0158 0.008
                        }
                      }
                    }
                  }
                }
              }
            }
          }
        }
        JOINT rCollar
        {
          OFFSET -1.7069 20.075 5.0056
          CHANNELS 3 Zrotation Xrotation Yrotation
          JOINT rShldr
          {
            OFFSET -13.6458 -0.047 -4.849
            CHANNELS 3 Zrotation Xrotation Yrotation
            JOINT rForeArm
            {
              OFFSET -28.3255 -0.9759 2.2888
              CHANNELS 3 Zrotation Xrotation Yrotation
              JOINT rHand
              {
                OFFSET -22.1583 -0.53 10.8316
                CHANNELS 3 Zrotation Xrotation Yrotation
                JOINT rThumb1
                {
                  OFFSET -0.786 0.112 2.5817
                  CHANNELS 3 Zrotation Xrotation Yrotation
                  JOINT rThumb2
                  {
                    OFFSET -0.3601 -0.878 4.2331
                    CHANNELS 3 Zrotation Xrotation Yrotation
                    JOINT rThumb2_End
                    {
                      OFFSET -1.8127 -1.216 2.2227
                      CHANNELS 3 Zrotation Xrotation Yrotation
                      End Site
                      {
                        OFFSET -0.0181 -0.0122 0.0222
                      }
                    }
                  }
                }
                JOINT rCarpal1
                {
                  OFFSET -0.9571 1.114 1.7695
                  CHANNELS 3 Zrotation Xrotation Yrotation
                  JOINT rIndex1
                  {
                    OFFSET -4.1246 0.487 4.1451
                    CHANNELS 3 Zrotation Xrotation Yrotation
                    JOINT rIndex2
                    {
                      OFFSET -3.4052 -1.454 2.7682
                      CHANNELS 3 Zrotation Xrotation Yrotation
                      JOINT rIndex2_End
                      {
                        OFFSET -1.4531 -1.795 1.2713
                        CHANNELS 3 Zrotation Xrotation Yrotation
                        End Site
                        {
                          OFFSET -0.0145 -0.018 0.0127
                        }
                      }
                    }
                  }
                  JOINT rMid1
                  {
                    OFFSET -5.6954 0.21 2.1184
                    CHANNELS 3 Zrotation Xrotation Yrotation
                    JOINT rMid2
                    {
                      OFFSET -3.9766 -1.54 2.3863
                      CHANNELS 3 Zrotation Xrotation Yrotation
                      JOINT rMid2_End
                      {
                        OFFSET -1.4042 -1.926 1.125
                        CHANNELS 3 Zrotation Xrotation Yrotation
                        End Site
                        {
                          OFFSET -0.014 -0.0193 0.0113
                        }
                      }
                    }
                  }
                }
                JOINT rCarpal2
                {
                  OFFSET -2.0956 0.66 -0.3894
                  CHANNELS 3 Zrotation Xrotation Yrotation
                  JOINT rRing1
                  {
                    OFFSET -5.0395 -0.09 2.4971
                    CHANNELS 3 Zrotation Xrotation Yrotation
                    JOINT rRing2
                    {
                      OFFSET -3.7921 -1.552 1.4806
                      CHANNELS 3 Zrotation Xrotation Yrotation
                      JOINT rRing2_End
                      {
                        OFFSET -1.4655 -1.808 0.9609
                        CHANNELS 3 Zrotation Xrotation Yrotation
                        End Site
                        {
                          OFFSET -0.0147 -0.0181 0.0096
                        }
                      }
                    }
                  }
                  JOINT rPinky1
                  {
                    OFFSET -4.9141 -1.269 0.3592
                    CHANNELS 3 Zrotation Xrotation Yrotation
                    JOINT rPinky2
                    {
                      OFFSET -3.1477 -1.685 0.8462
                      CHANNELS 3 Zrotation Xrotation Yrotation
                      JOINT rPinky2_End
                      {
                        OFFSET -0.8055 -1.585 0.7955
                        CHANNELS 3 Zrotation Xrotation Yrotation
                        End Site
                        {
                          OFFSET -0.0081 -0.0158 0.008
                        }
                      }
                    }
                  }
                }
              }
            }
          }
        }
      }
    }
  }
  JOINT lThigh
  {
    OFFSET 8.367 -8.2066 0.5982
    CHANNELS 3 Zrotation Xrotation Yrotation
    JOINT lShin
    {
      OFFSET 2.1923 -43.463 -0.4932
      CHANNELS 3 Zrotation Xrotation Yrotation
      JOINT lFoot
      {
        OFFSET 0.7333 -45.8593 -2.6451
        CHANNELS 3 Zrotation Xrotation Yrotation
        End Site
        {
          OFFSET 2.6618 -4.2699 12.3931
        }
      }
    }
  }
  JOINT rThigh
  {
    OFFSET -8.367 -8.2066 0.5982
    CHANNELS 3 Zrotation Xrotation Yrotation
    JOINT rShin
    {
      OFFSET -2.1923 -43.463 -0.4931
      CHANNELS 3 Zrotation Xrotation Yrotation
      JOINT rFoot
      {
        OFFSET -0.7333 -45.8593 -2.6451
        CHANNELS 3 Zrotation Xrotation Yrotation
        End Site
        {
          OFFSET -2.6618 -4.2699 12.3931
        }
      }
    }
  }
}
MOTION
Frames:	6
Frame Time:	0.0333333
0 91.7903 2.51682 0 0 -0 0 0 -0 0 0 -0 0 0 -0 0 0 -0 0 0 -0 0 0 -0 1.66051 0.0835086 5.75766 -0.0175111 0.895433 15.7816 7.95139e-016 -1.98785e-016 -0 5.46658e-016 -3.97569e-016 -0 5.96354e-016 0 -0 3.97569e-016 1.98785e-016 9.54166e-015 1.49089e-016 -3.97569e-016 -0 6.4605e-016 0 3.18055e-015 5.96354e-016 0 3.18055e-015 8.94531e-016 -1.98785e-016 6.36111e-015 6.4605e-016 0 3.18055e-015 5.96354e-016 0 3.18055e-015 8.94531e-016 -1.98785e-016 6.36111e-015 1.49089e-016 -3.97569e-016 -0 6.4605e-016 0 3.18055e-015 5.96354e-016 0 3.18055e-015 8.94531e-016 -1.98785e-016 6.36111e-015 6.4605e-016 0 3.18055e-015 5.96354e-016 0 3.18055e-015 8.94531e-016 -1.98785e-016 6.36111e-015 0 0 -0 -1.4496 0.0636048 -5.0245 -1.74811 1.20616 -16.8394 -1.19271e-015 1.98785e-016 -3.18055e-015 -3.97569e-016 1.98785e-016 -3.18055e-015 -2.98177e-016 1.98785e-016 -3.18055e-015 -2.98177e-016 3.97569e-016 -0 4.96962e-016 0 -6.36111e-015 -9.93923e-017 3.97569e-016 -0 -8.94531e-016 5.96354e-016 -0 -3.97569e-016 3.97569e-016 -0 -9.93923e-017 3.97569e-016 -0 -8.94531e-016 5.96354e-016 -0 -3.97569e-016 3.97569e-016 -0 4.96962e-016 0 -6.36111e-015 -9.93923e-017 3.97569e-016 -0 -8.94531e-016 5.96354e-016 -0 -3.97569e-016 3.97569e-016 -0 -9.93923e-017 3.97569e-016 -0 -8.94531e-016 5.96354e-016 -0 -3.97569e-016 3.97569e-016 -0 -4.66111 -0.998717 0.12318 0.00986924 1.54847 0.176523 4.65186 -0.572283 -0.254274 4.66111 -0.998765 -0.123176 -0.00986867 1.54869 -0.176537 -4.65186 -0.572453 0.25427 
0.010864 36.5874 -7.96886 -0 -66.81 -0 -0.176347 3.95339 -0.229482 -0.337987 7.90745 -0.448338 -0.337987 7.90744 -0.448339 0.601994 0.461405 -0.0718996 2.93973e-007 13.3888 -1.00596e-007 1.22497 -8.69819 -7.24033 -3.4999 -14.152 -24.5542 -23.6693 -11.1352 -17.4345 -8.70566 -6.9341 -18.3395 -4.7319e-007 -5.10335e-007 4.94216e-007 -1.45151e-007 3.95373e-006 4.08268e-006 -3.54893e-007 -3.82751e-007 3.70662e-007 -6.36111e-015 0 -0 -4.7319e-007 -5.10335e-007 4.94216e-007 -1.45151e-007 3.95373e-006 4.08268e-006 -3.54893e-007 -3.82751e-007 3.70662e-007 -4.7319e-007 -5.10335e-007 4.94216e-007 -1.45151e-007 3.95373e-006 4.08268e-006 -3.54893e-007 -3.82751e-007 3.70662e-007 -6.36111e-015 0 -0 -4.7319e-007 -5.10335e-007 4.94216e-007 -1.45151e-007 3.95373e-006 4.08268e-006 -3.54893e-007 -3.82751e-007 3.70662e-007 -4.7319e-007 -5.10335e-007 4.94216e-007 -1.45151e-007 3.95373e-006 4.08268e-006 -3.54893e-007 -3.82751e-007 3.70662e-007 11.6101 -6.0914 14.8024 31.8856 12.9854 5.08633 18.5014 -21.9786 -5.41018 22.3158 21.97 -5.83793 1.59028e-015 -4.77083e-015 3.18055e-015 1.59028e-015 -6.36111e-015 6.36111e-015 3.18055e-015 -3.18055e-015 3.18055e-015 1.59028e-015 -3.97569e-015 3.18055e-015 -1.59028e-015 -3.18055e-015 1.27222e-014 3.18055e-015 -3.97569e-015 9.54166e-015 -1.59028e-015 -7.95139e-016 -1.27222e-014 -1.59028e-015 -3.18055e-015 1.27222e-014 3.18055e-015 -3.97569e-015 9.54166e-015 -1.59028e-015 -7.95139e-016 -1.27222e-014 1.59028e-015 -3.97569e-015 3.18055e-015 -1.59028e-015 -3.18055e-015 1.27222e-014 3.18055e-015 -3.97569e-015 9.54166e-015 -1.59028e-015 -7.95139e-016 -1.27222e-014 -1.59028e-015 -3.18055e-015 1.27222e-014 3.18055e-015 -3.97569e-015 9.54166e-015 -1.59028e-015 -7.95139e-016 -1.27222e-014 2.23273 -26.6296 7.25457 12.4289 79.9865 -11.9308 7.32037 9.0477 1.15919 -2.21877 -20.258 -6.466 -4.18065 70.8251 3.62458 -7.22012 9.05198 -0.912082 
0.00896461 -3.70455 -9.58389 -180 -69.7344 -180 -0.261056 6.50815 -0.401148 -0.480599 13.0179 -0.77985 -0.480598 13.0179 -0.77985 0.994142 0.685789 -0.117399 -1.24818e-007 22.006 4.77292e-008 0.772419 -14.0838 -12.1803 -14.0799 -17.633 -45.901 -45.7448 -11.638 -39.4798 -16.7717 -9.05025 -30.5448 -3.04373e-006 1.50152e-006 -1.44408e-006 3.42394e-006 -2.18517e-006 -7.3715e-008 -3.04373e-006 1.50152e-006 -1.44408e-006 2.38542e-015 0 -4.77083e-015 -3.04373e-006 1.50152e-006 -1.44408e-006 3.42394e-006 -2.18517e-006 -7.3715e-008 -3.04373e-006 1.50152e-006 -1.44408e-006 -3.04373e-006 1.50152e-006 -1.44408e-006 3.42394e-006 -2.18517e-006 -7.3715e-008 -3.04373e-006 1.50152e-006 -1.44408e-006 2.38542e-015 0 -4.77083e-015 -3.04373e-006 1.50152e-006 -1.44408e-006 3.42394e-006 -2.18517e-006 -7.3715e-008 -3.04373e-006 1.50152e-006 -1.44408e-006 -3.04373e-006 1.50152e-006 -1.44408e-006 3.42394e-006 -2.18517e-006 -7.3715e-008 -3.04373e-006 1.50152e-006 -1.44408e-006 20.8271 -9.39393 24.619 51.0298 20.8075 12.4739 38.0284 -35.0825 5.152 39.6054 35.9522 -11.7566 -2.53152e-007 -3.47167e-006 5.78879e-007 -3.18055e-015 -6.36111e-015 -3.18055e-015 -3.18055e-015 3.18055e-015 -9.54166e-015 6.36111e-015 3.18055e-015 -0 -2.53152e-007 -3.47167e-006 5.78879e-007 0 0 -0 0 3.18055e-015 -0 -2.53152e-007 -3.47167e-006 5.78879e-007 0 0 -0 0 3.18055e-015 -0 6.36111e-015 3.18055e-015 -0 -2.53152e-007 -3.47167e-006 5.78879e-007 0 0 -0 0 3.18055e-015 -0 -2.53152e-007 -3.47167e-006 5.78879e-007 0 0 -0 0 3.18055e-015 -0 9.99263 -46.7235 18.8372 171.504 47.3938 -166.184 8.52912 18.4788 3.72424 -8.64021 -34.6639 -13.9922 -170.83 62.9537 167.364 -8.55705 16.6968 -2.43794 
0.00901377 -1.89786 -9.62057 -180 -71.6848 -180 -0.258657 6.34803 -0.392048 -0.477732 12.6977 -0.762139 -0.477732 12.6977 -0.76214 0.976462 0.448196 -0.111566 1.51351e-007 21.3462 -3.50816e-007 0.685822 -13.6299 -11.9328 -13.5308 -17.6241 -44.9375 -44.709 -11.7818 -38.5208 -16.3359 -8.92007 -29.8961 -2.38542e-015 3.18055e-015 -4.77083e-015 2.38542e-015 3.18055e-015 -0 2.78299e-015 6.36111e-015 -0 -2.38542e-015 0 -4.77083e-015 -4.41391e-031 3.18055e-015 7.95139e-015 3.97569e-016 0 -6.36111e-015 1.19271e-015 3.18055e-015 -0 -4.41391e-031 3.18055e-015 7.95139e-015 3.97569e-016 0 -6.36111e-015 1.19271e-015 3.18055e-015 -0 -2.38542e-015 0 -4.77083e-015 -4.41391e-031 3.18055e-015 7.95139e-015 3.97569e-016 0 -6.36111e-015 1.19271e-015 3.18055e-015 -0 -4.41391e-031 3.18055e-015 7.95139e-015 3.97569e-016 0 -6.36111e-015 1.19271e-015 3.18055e-015 -0 20.3922 -9.04259 24.0913 50.27 20.4372 12.3624 37.0186 -34.5504 4.5902 38.4142 35.3772 -10.3503 -8.12037e-008 2.45178e-007 -9.49998e-007 2.67741e-007 5.92401e-006 3.03536e-006 7.1045e-007 3.06268e-007 -3.58498e-007 -0 0 6.36111e-015 -8.12037e-008 2.45178e-007 -9.49998e-007 2.67741e-007 5.92401e-006 3.03536e-006 7.1045e-007 3.06268e-007 -3.58498e-007 -8.12037e-008 2.45178e-007 -9.49998e-007 2.67741e-007 5.92401e-006 3.03536e-006 7.1045e-007 3.06268e-007 -3.58498e-007 -0 0 6.36111e-015 -8.12037e-008 2.45178e-007 -9.49998e-007 2.67741e-007 5.92401e-006 3.03536e-006 7.1045e-007 3.06268e-007 -3.58498e-007 -8.12037e-008 2.45178e-007 -9.49998e-007 2.67741e-007 5.92401e-006 3.03536e-006 7.1045e-007 3.06268e-007 -3.58498e-007 9.94867 -45.5896 18.3155 171.301 49.7385 -166.421 8.85856 17.8228 3.3076 -8.54664 -33.9211 -13.7513 -170.403 65.0067 167.162 -8.74665 16.25 -2.17315 
0.00905603 1.17192 -9.66077 -180 -74.9926 -180 -0.253758 6.10678 -0.377415 -0.470835 12.2151 -0.733756 -0.470835 12.2151 -0.733756 0.946415 0.195828 -0.104204 -2.44679e-007 20.4089 5.75363e-008 0.616114 -13.003 -11.5286 -12.6099 -17.575 -43.3003 -42.9556 -11.9889 -36.8833 -15.6348 -8.73964 -28.8636 -3.97569e-015 -3.18055e-015 3.18055e-015 -7.95139e-016 -3.18055e-015 2.38542e-015 -7.55382e-015 -3.18055e-015 1.59028e-015 -2.98177e-015 -6.36111e-015 7.95139e-016 -7.7526e-015 -3.18055e-015 1.19271e-014 5.76476e-015 0 2.38542e-015 2.5842e-015 3.18055e-015 2.38542e-015 -7.7526e-015 -3.18055e-015 1.19271e-014 5.76476e-015 0 2.38542e-015 2.5842e-015 3.18055e-015 2.38542e-015 -2.98177e-015 -6.36111e-015 7.95139e-016 -7.7526e-015 -3.18055e-015 1.19271e-014 5.76476e-015 0 2.38542e-015 2.5842e-015 3.18055e-015 2.38542e-015 -7.7526e-015 -3.18055e-015 1.19271e-014 5.76476e-015 0 2.38542e-015 2.5842e-015 3.18055e-015 2.38542e-015 19.664 -8.58531 23.2541 48.941 19.832 12.0169 35.3371 -33.6337 3.65907 36.6673 34.3663 -8.71765 3.80488e-007 -1.44002e-007 2.65363e-008 -6.36111e-015 7.95139e-015 -0 -2.64834e-031 3.18055e-015 4.77083e-015 -6.36111e-015 3.18055e-015 4.77083e-015 3.80488e-007 -1.44002e-007 2.65363e-008 3.18055e-015 4.77083e-015 3.18055e-015 3.18055e-015 4.77083e-015 1.59028e-015 3.80488e-007 -1.44002e-007 2.65363e-008 3.18055e-015 4.77083e-015 3.18055e-015 3.18055e-015 4.77083e-015 1.59028e-015 -6.36111e-015 3.18055e-015 4.77083e-015 3.80488e-007 -1.44002e-007 2.65363e-008 3.18055e-015 4.77083e-015 3.18055e-015 3.18055e-015 4.77083e-015 1.59028e-015 3.80488e-007 -1.44002e-007 2.65363e-008 3.18055e-015 4.77083e-015 3.18055e-015 3.18055e-015 4.77083e-015 1.59028e-015 9.59407 -43.772 17.2928 170.889 53.7097 -166.665 9.16863 16.8026 2.77898 -8.22386 -32.7031 -13.2195 -169.488 68.4844 166.596 -8.90572 15.5324 -1.8441 
0.0090579 1.17188 -9.66074 -180 -74.9926 -180 -0.25449 6.06322 -0.37649 -0.472653 12.128 -0.731922 -0.472654 12.128 -0.731922 0.946001 -0.0218789 -0.100577 5.86993e-008 20.1475 -2.99325e-007 0.49243 -12.7944 -11.5097 -12.6099 -17.575 -43.3003 -42.9556 -11.9889 -36.8833 -15.5942 -8.65624 -28.7683 4.17448e-015 2.22639e-014 1.59028e-015 1.98785e-015 2.54444e-014 -5.56597e-015 -1.98785e-015 2.8625e-014 -2.38542e-015 3.77691e-015 -3.18055e-015 2.38542e-015 -9.54166e-015 2.54444e-014 -0 2.38542e-015 2.54444e-014 -2.38542e-015 -2.78299e-015 2.8625e-014 1.59028e-015 -9.54166e-015 2.54444e-014 -0 2.38542e-015 2.54444e-014 -2.38542e-015 -2.78299e-015 2.8625e-014 1.59028e-015 3.77691e-015 -3.18055e-015 2.38542e-015 -9.54166e-015 2.54444e-014 -0 2.38542e-015 2.54444e-014 -2.38542e-015 -2.78299e-015 2.8625e-014 1.59028e-015 -9.54166e-015 2.54444e-014 -0 2.38542e-015 2.54444e-014 -2.38542e-015 -2.78299e-015 2.8625e-014 1.59028e-015 19.6722 -8.37449 23.1762 48.9941 19.7996 12.2459 35.3371 -33.6337 3.65909 36.3568 34.3883 -7.69681 1.39018e-006 6.42997e-007 -7.43106e-007 6.36111e-015 9.54166e-015 3.18055e-015 3.18055e-015 1.59028e-015 -4.77083e-015 3.53113e-031 -6.36111e-015 3.18055e-015 1.39018e-006 6.42997e-007 -7.43106e-007 6.36111e-015 1.59028e-015 6.36111e-015 -5.29669e-031 -6.36111e-015 -4.77083e-015 1.39018e-006 6.42997e-007 -7.43106e-007 6.36111e-015 1.59028e-015 6.36111e-015 -5.29669e-031 -6.36111e-015 -4.77083e-015 3.53113e-031 -6.36111e-015 3.18055e-015 1.39018e-006 6.42997e-007 -7.43106e-007 6.36111e-015 1.59028e-015 6.36111e-015 -5.29669e-031 -6.36111e-015 -4.77083e-015 1.39018e-006 6.42997e-007 -7.43106e-007 6.36111e-015 1.59028e-015 6.36111e-015 -5.29669e-031 -6.36111e-015 -4.77083e-015 10.0037 -43.7392 17.6945 170.89 53.7091 -166.677 9.49062 16.7892 2.60924 -8.45955 -32.6846 -13.4614 -169.489 68.4842 166.602 -9.12703 15.5169 -1.69947 
